<svg width="360" height="96" viewBox="0 0 360 96" fill="none" xmlns="http://www.w3.org/2000/svg" role="img" aria-label="Vereen Electro Froid">
  <defs>
    <linearGradient id="brandGrad" x1="10" y1="10" x2="86" y2="86" gradientUnits="userSpaceOnUse">
      <stop stop-color="#0F172A"/>
      <stop offset="0.55" stop-color="#0E7490"/>
      <stop offset="1" stop-color="#F97316"/>
    </linearGradient>
    <linearGradient id="wordGrad" x1="112" y1="20" x2="330" y2="72" gradientUnits="userSpaceOnUse">
      <stop stop-color="#0F172A"/>
      <stop offset="1" stop-color="#0E7490"/>
    </linearGradient>
  </defs>
  <rect x="2" y="2" width="356" height="92" rx="24" fill="#F8FAFC" stroke="#CBD5E1"/>
  <rect x="2" y="2" width="356" height="92" rx="24" fill="url(#brandGrad)" opacity="0.04"/>
  <g transform="translate(16,14)">
    <rect x="0" y="0" width="68" height="68" rx="22" fill="url(#brandGrad)"/>
    <path d="M34 12C25.16 12 18 19.16 18 28C18 32.94 20.24 37.33 23.74 40.28C21.47 42.19 20 45.07 20 48.29C20 54.08 24.75 58.83 30.54 58.83H44.05C51.17 58.83 57 53 57 45.88C57 40.65 53.79 36.19 49.23 34.32C50.09 32.42 50.59 30.31 50.59 28C50.59 19.16 43.44 12 34 12Z" fill="white" fill-opacity="0.10"/>
    <path d="M20 34H47" stroke="#E2E8F0" stroke-width="3.2" stroke-linecap="round"/>
    <path d="M34 18V51" stroke="#E2E8F0" stroke-width="3.2" stroke-linecap="round"/>
    <path d="M24 24L44 44" stroke="#F97316" stroke-width="3.2" stroke-linecap="round"/>
    <path d="M44 24L24 44" stroke="#38BDF8" stroke-width="3.2" stroke-linecap="round"/>
    <path d="M35 10C38 10 41 11.1 43.2 12.9" stroke="#F8FAFC" stroke-width="2.4" stroke-linecap="round"/>
    <circle cx="34" cy="34" r="4.5" fill="#F8FAFC"/>
  </g>
  <text x="108" y="40" fill="url(#wordGrad)" font-size="28" font-family="DM Sans, Arial, sans-serif" font-weight="800" letter-spacing="1.6">VEREEN</text>
  <text x="108" y="66" fill="#0F172A" font-size="18" font-family="DM Sans, Arial, sans-serif" font-weight="700" letter-spacing="1.1">ELECTRO FROID</text>
  <text x="108" y="84" fill="#0E7490" font-size="11" font-family="DM Sans, Arial, sans-serif" font-weight="600" letter-spacing="2.4">HVAC • REFRIGERATION • SOLAR • SERVICE</text>
</svg>
