<svg width="320" height="96" viewBox="0 0 320 96" fill="none" xmlns="http://www.w3.org/2000/svg" role="img" aria-label="Vereen Electro Froid Monogram">
  <defs>
    <linearGradient id="monoGrad" x1="12" y1="8" x2="76" y2="80" gradientUnits="userSpaceOnUse">
      <stop stop-color="#061B2E"/>
      <stop offset="0.48" stop-color="#0A2E4D"/>
      <stop offset="1" stop-color="#1B6FAE"/>
    </linearGradient>
    <linearGradient id="monoAccent" x1="22" y1="18" x2="62" y2="58" gradientUnits="userSpaceOnUse">
      <stop stop-color="#75FCA5"/>
      <stop offset="1" stop-color="#F28A1F"/>
    </linearGradient>
  </defs>
  <rect x="2" y="2" width="316" height="92" rx="26" fill="#F9F9FF"/>
  <g transform="translate(16,14)">
    <circle cx="34" cy="34" r="32" fill="url(#monoGrad)"/>
    <circle cx="34" cy="34" r="24" fill="#F8FAFC" fill-opacity="0.06"/>
    <path d="M24 18C26.1 18 27.8 19.7 27.8 21.8C27.8 23.1 27.2 24.3 26.2 25.1C28.4 28.1 31.8 30 35.7 30C39.1 30 42.1 28.7 44.2 26.5L47.3 29.6C45.2 31.8 42.3 33.4 39 34.1L39 48H33V34.1C29.1 33.7 25.7 31.8 23.3 29.1C22.5 29.9 21.4 30.4 20.2 30.4C18.1 30.4 16.4 28.7 16.4 26.6C16.4 24.5 18.1 22.8 20.2 22.8C22 22.8 23.4 24.1 23.7 25.8C24.5 26 25.2 26.1 26 26.1C26.5 26.1 27 26.1 27.5 26C28 25.6 28.5 25 28.5 24.2C28.5 22.4 27 20.9 25.2 20.9H24Z" fill="#F8FAFC"/>
    <path d="M21.5 42C22.9 39 25.2 36.5 28.1 34.9C27.3 34.1 26.5 33.2 25.8 32.2C23.2 34.2 21.3 37 20.5 40.3L21.5 42Z" fill="url(#monoAccent)"/>
    <path d="M43.5 42C42.1 39 39.8 36.5 36.9 34.9C37.7 34.1 38.5 33.2 39.2 32.2C41.8 34.2 43.7 37 44.5 40.3L43.5 42Z" fill="url(#monoAccent)"/>
    <circle cx="34" cy="34" r="3.7" fill="url(#monoAccent)"/>
  </g>
  <text x="104" y="40" fill="#061B2E" font-size="24" font-family="Manrope, Inter, Arial, sans-serif" font-weight="800" letter-spacing="1">Vereen</text>
  <text x="104" y="64" fill="#0A2E4D" font-size="18" font-family="Manrope, Inter, Arial, sans-serif" font-weight="700" letter-spacing="0.8">Electro Froid</text>
  <text x="104" y="82" fill="#0E7490" font-size="11" font-family="Inter, Arial, sans-serif" font-weight="600" letter-spacing="2">PRECISION HVAC | COOLING | SERVICE</text>
</svg>
