<svg width="380" height="104" viewBox="0 0 380 104" fill="none" xmlns="http://www.w3.org/2000/svg" role="img" aria-label="Vereen Electro Froid">
  <defs>
    <linearGradient id="brandGrad" x1="10" y1="8" x2="92" y2="92" gradientUnits="userSpaceOnUse">
      <stop stop-color="#061B2E"/>
      <stop offset="0.52" stop-color="#0A2E4D"/>
      <stop offset="1" stop-color="#1B6FAE"/>
    </linearGradient>
    <linearGradient id="brandGlow" x1="20" y1="18" x2="76" y2="76" gradientUnits="userSpaceOnUse">
      <stop stop-color="#75FCA5" stop-opacity="0.95"/>
      <stop offset="1" stop-color="#F28A1F" stop-opacity="0.95"/>
    </linearGradient>
    <linearGradient id="wordGrad" x1="120" y1="20" x2="342" y2="80" gradientUnits="userSpaceOnUse">
      <stop stop-color="#061B2E"/>
      <stop offset="0.6" stop-color="#0A2E4D"/>
      <stop offset="1" stop-color="#1B6FAE"/>
    </linearGradient>
  </defs>
  <rect x="2" y="2" width="376" height="100" rx="28" fill="#FFFFFF" fill-opacity="0.92"/>
  <rect x="2" y="2" width="376" height="100" rx="28" fill="url(#brandGrad)" fill-opacity="0.04"/>
  <g transform="translate(16,12)">
    <path d="M34 4L57 14V36C57 50.31 48.88 62.75 34 72C19.12 62.75 11 50.31 11 36V14L34 4Z" fill="url(#brandGrad)"/>
    <path d="M34 11.5L50.5 18.7V35.2C50.5 46.15 44.47 55.55 34 62.1C23.53 55.55 17.5 46.15 17.5 35.2V18.7L34 11.5Z" fill="#F8FAFC" fill-opacity="0.06"/>
    <path d="M34 18.5C30.99 18.5 28.3 19.69 26.31 21.62C24.32 23.55 23.06 26.31 23.06 29.34C23.06 33.08 24.86 36.06 27.78 38.14C26.05 39.6 24.91 41.84 24.91 44.34C24.91 48.77 28.52 52.38 32.95 52.38H39.43C43.97 52.38 47.65 48.69 47.65 44.15C47.65 40.98 45.79 38.25 43.14 36.95C43.62 35.86 43.9 34.67 43.9 33.41C43.9 26.15 39.01 18.5 34 18.5Z" fill="#F8FAFC" fill-opacity="0.1"/>
    <path d="M34 18.5V52.5" stroke="#E2E8F0" stroke-width="2.8" stroke-linecap="round"/>
    <path d="M22.5 35H45.5" stroke="#E2E8F0" stroke-width="2.8" stroke-linecap="round"/>
    <path d="M25.1 25.1L42.9 42.9" stroke="url(#brandGlow)" stroke-width="2.8" stroke-linecap="round"/>
    <path d="M42.9 25.1L25.1 42.9" stroke="#F8FAFC" stroke-width="2.8" stroke-linecap="round"/>
    <circle cx="34" cy="35" r="4" fill="url(#brandGlow)"/>
  </g>
  <text x="116" y="42" fill="url(#wordGrad)" font-size="30" font-family="Manrope, Inter, Arial, sans-serif" font-weight="800" letter-spacing="1.2">VEREEN</text>
  <text x="116" y="69" fill="#111C2D" font-size="19" font-family="Manrope, Inter, Arial, sans-serif" font-weight="700" letter-spacing="0.9">ELECTRO FROID</text>
  <text x="116" y="87" fill="#0A2E4D" font-size="11" font-family="Inter, Arial, sans-serif" font-weight="600" letter-spacing="2.2">HVAC | REFRIGERATION | SOLAR | SERVICE</text>
</svg>
