<svg width="64" height="64" viewBox="0 0 64 64" fill="none" xmlns="http://www.w3.org/2000/svg" role="img" aria-label="Vereen Electro Froid">
  <defs>
    <linearGradient id="favGrad" x1="10" y1="8" x2="54" y2="56" gradientUnits="userSpaceOnUse">
      <stop stop-color="#061B2E"/>
      <stop offset="0.55" stop-color="#0A2E4D"/>
      <stop offset="1" stop-color="#1B6FAE"/>
    </linearGradient>
    <linearGradient id="favAccent" x1="18" y1="16" x2="46" y2="48" gradientUnits="userSpaceOnUse">
      <stop stop-color="#75FCA5"/>
      <stop offset="1" stop-color="#F28A1F"/>
    </linearGradient>
  </defs>
  <path d="M32 6L50 14V30C50 41.46 43.28 51.47 32 58C20.72 51.47 14 41.46 14 30V14L32 6Z" fill="url(#favGrad)"/>
  <path d="M32 12.5L44.5 18V29.6C44.5 37.9 39.8 45.02 32 49.72C24.2 45.02 19.5 37.9 19.5 29.6V18L32 12.5Z" fill="#F8FAFC" fill-opacity="0.06"/>
  <path d="M32 18.5V45.5" stroke="#E2E8F0" stroke-width="2.8" stroke-linecap="round"/>
  <path d="M22.5 31H41.5" stroke="#E2E8F0" stroke-width="2.8" stroke-linecap="round"/>
  <path d="M25.3 24.5L38.7 37.9" stroke="url(#favAccent)" stroke-width="2.8" stroke-linecap="round"/>
  <path d="M38.7 24.5L25.3 37.9" stroke="#F8FAFC" stroke-width="2.8" stroke-linecap="round"/>
  <circle cx="32" cy="31" r="3.6" fill="url(#favAccent)"/>
</svg>
