<svg width="64" height="64" viewBox="0 0 64 64" fill="none" xmlns="http://www.w3.org/2000/svg" role="img" aria-label="Vereen Electro Froid">
  <defs>
    <linearGradient id="faviconGrad" x1="8" y1="8" x2="56" y2="56" gradientUnits="userSpaceOnUse">
      <stop stop-color="#0F172A"/>
      <stop offset="0.55" stop-color="#0E7490"/>
      <stop offset="1" stop-color="#F97316"/>
    </linearGradient>
  </defs>
  <rect x="2" y="2" width="60" height="60" rx="18" fill="url(#faviconGrad)"/>
  <path d="M32 12C25.37 12 20 17.37 20 24C20 27.72 21.66 31.01 24.28 33.19C22.66 34.58 21.62 36.64 21.62 38.94C21.62 43.03 24.94 46.35 29.03 46.35H38.61C43.64 46.35 47.73 42.26 47.73 37.23C47.73 33.5 45.46 30.33 42.22 29.01C42.83 27.64 43.18 26.13 43.18 24C43.18 17.37 37.81 12 32 12Z" fill="white" fill-opacity="0.10"/>
  <path d="M21 30H43" stroke="#E2E8F0" stroke-width="3" stroke-linecap="round"/>
  <path d="M32 19V46" stroke="#E2E8F0" stroke-width="3" stroke-linecap="round"/>
  <path d="M24.5 23.5L40.5 39.5" stroke="#F8FAFC" stroke-width="3" stroke-linecap="round"/>
  <path d="M40.5 23.5L24.5 39.5" stroke="#38BDF8" stroke-width="3" stroke-linecap="round"/>
  <circle cx="32" cy="31" r="3.5" fill="#F97316"/>
</svg>
